<?xml version="1.0" encoding="utf-8"?>
<!-- Generator: Adobe Illustrator 19.0.0, SVG Export Plug-In . SVG Version: 6.00 Build 0)  -->
<svg version="1.1" id="Layer_1" xmlns="http://www.w3.org/2000/svg" xmlns:xlink="http://www.w3.org/1999/xlink" x="0px" y="0px"
	 width="264.3px" height="52.6px" viewBox="-379 486.4 264.3 52.6" style="enable-background:new -379 486.4 264.3 52.6;"
	 xml:space="preserve">
<style type="text/css">
	.st0{fill:#66B49C;}
	.st1{fill:#FFFFFF;}
	.st2{fill:#6C4287;}
</style>
<g id="XMLID_79_">
	<path id="XMLID_98_" class="st0" d="M-353,527.9h-2.7V504h-8.8v-2.4h20.2v2.4h-8.7V527.9z"/>
	<path id="XMLID_95_" class="st0" d="M-342.7,527.9h-2.9l11.3-26.2h2.6l11.3,26.2h-3l-2.9-6.9h-13.5L-342.7,527.9z M-338.8,518.5
		h11.6l-5.8-13.9L-338.8,518.5z"/>
	<path id="XMLID_93_" class="st0" d="M-313.9,525.5h12.2v2.4h-14.8v-26.3h2.7v23.9H-313.9z"/>
	<path id="XMLID_90_" class="st0" d="M-295,525.5h14v2.4h-16.6v-26.3h16.3v2.4H-295v9h12.7v2.4H-295V525.5z"/>
	<path id="XMLID_88_" class="st0" d="M-257.1,524L-257.1,524l0.1-22.4h2.7v26.2h-3.3l-15.3-22.6h-0.1v22.6h-2.7v-26.2h3.3
		L-257.1,524z"/>
	<path id="XMLID_86_" class="st0" d="M-239,527.9h-2.7V504h-8.8v-2.4h20.2v2.4h-8.7V527.9z"/>
	<path id="XMLID_84_" class="st1" d="M-219.5,513l0.4,14.8h-8.2v-26.2h11.5l4.8,14.1h0.2l4.1-14.1h11.9v26.2h-8.6l0.3-14.8h-0.2
		l-4.9,14.8h-6.2l-4.8-14.8C-219.2,513-219.5,513-219.5,513z"/>
	<path id="XMLID_82_" class="st1" d="M-191.1,514.6c0-2.1,0.4-4,1.1-5.7c0.7-1.7,1.8-3.1,3.1-4.3c1.3-1.2,2.8-2.1,4.6-2.7
		s3.7-1,5.8-1s4,0.3,5.8,1c1.8,0.6,3.3,1.6,4.6,2.7c1.3,1.2,2.3,2.6,3.1,4.3c0.7,1.7,1.1,3.6,1.1,5.7c0,2.1-0.4,4-1.1,5.7
		c-0.7,1.7-1.8,3.2-3.1,4.4s-2.9,2.2-4.6,2.8c-1.8,0.7-3.7,1-5.8,1s-4-0.3-5.8-1s-3.3-1.6-4.6-2.8s-2.3-2.7-3.1-4.4
		C-190.7,518.6-191.1,516.7-191.1,514.6z"/>
	<path id="XMLID_80_" class="st1" d="M-150.4,513l0.4,14.8h-8.2v-26.2h11.5l4.8,14.1h0.2l4.1-14.1h11.9v26.2h-8.6l0.3-14.8h-0.2
		l-4.9,14.8h-6.2l-4.8-14.8C-150.1,513-150.4,513-150.4,513z"/>
</g>
<path id="XMLID_52_" class="st2" d="M-177.8,524.5c6.1-3,8.5-6.4,9.1-11.1c0.1-1.2,0.1-2.5-0.4-3.7c-0.5-1.2-1.5-2.1-2.7-2.3
	c-1.3-0.2-2.5,0.5-3.4,1.5c-0.8,1-1.3,2.2-1.8,3.3c-0.5-1.6-1.2-3.4-2.9-3.9c-2.1-0.6-3.9,1.7-4.2,3.9c-0.3,2.8,1.2,5.8,3.6,7.2
	c1.5,0.9,3.3,0.9,3.7,2.8C-176.5,523.5-177.8,524.5-177.8,524.5z"/>
</svg>
