<?xml version="1.0" encoding="utf-8"?>
<!-- Generator: Adobe Illustrator 19.0.0, SVG Export Plug-In . SVG Version: 6.00 Build 0)  -->
<svg version="1.1" id="Layer_1" xmlns="http://www.w3.org/2000/svg" xmlns:xlink="http://www.w3.org/1999/xlink" x="0px" y="0px"
	 width="264.3px" height="52.6px" viewBox="0 0 264.3 52.6" style="enable-background:new 0 0 264.3 52.6;" xml:space="preserve">
<style type="text/css">
	.st0{fill:#66B49C;}
	.st1{fill:#6C4287;}
	.st2{fill:#FFFFFF;}
</style>
<g id="XMLID_79_">
	<path id="XMLID_98_" class="st0" d="M26,41.5h-2.7V17.6h-8.8v-2.4h20.2v2.4H26V41.5z"/>
	<path id="XMLID_95_" class="st0" d="M36.3,41.5h-2.9l11.3-26.2h2.6l11.3,26.2h-3l-2.9-6.9H39.2L36.3,41.5z M40.2,32.1h11.6L46,18.2
		L40.2,32.1z"/>
	<path id="XMLID_93_" class="st0" d="M65.1,39.1h12.2v2.4H62.5V15.2h2.7V39.1z"/>
	<path id="XMLID_90_" class="st0" d="M84,39.1h14v2.4H81.4V15.2h16.3v2.4H84v9h12.7V29H84V39.1z"/>
	<path id="XMLID_88_" class="st0" d="M121.9,37.6L121.9,37.6l0.1-22.4h2.7v26.2h-3.3l-15.3-22.6H106v22.6h-2.7V15.2h3.3L121.9,37.6z
		"/>
	<path id="XMLID_86_" class="st0" d="M140,41.5h-2.7V17.6h-8.8v-2.4h20.2v2.4H140V41.5z"/>
	<path id="XMLID_84_" class="st1" d="M159.5,26.6l0.4,14.8h-8.2V15.2h11.5l4.8,14.1h0.2l4.1-14.1h11.9v26.2h-8.6l0.3-14.8l-0.2,0
		l-4.9,14.8h-6.2l-4.8-14.8H159.5z"/>
	<path id="XMLID_82_" class="st1" d="M187.9,28.2c0-2.1,0.4-4,1.1-5.7c0.7-1.7,1.8-3.1,3.1-4.3c1.3-1.2,2.8-2.1,4.6-2.7
		c1.8-0.6,3.7-1,5.8-1s4,0.3,5.8,1c1.8,0.6,3.3,1.6,4.6,2.7c1.3,1.2,2.3,2.6,3.1,4.3c0.7,1.7,1.1,3.6,1.1,5.7c0,2.1-0.4,4-1.1,5.7
		c-0.7,1.7-1.8,3.2-3.1,4.4c-1.3,1.2-2.9,2.2-4.6,2.8c-1.8,0.7-3.7,1-5.8,1s-4-0.3-5.8-1c-1.8-0.7-3.3-1.6-4.6-2.8s-2.3-2.7-3.1-4.4
		C188.3,32.2,187.9,30.3,187.9,28.2z"/>
	<path id="XMLID_80_" class="st1" d="M228.6,26.6l0.4,14.8h-8.2V15.2h11.5l4.8,14.1h0.2l4.1-14.1h11.9v26.2h-8.6l0.3-14.8l-0.2,0
		l-4.9,14.8h-6.2l-4.8-14.8H228.6z"/>
</g>
<path id="XMLID_52_" class="st2" d="M201.2,38.1c6.1-3,8.5-6.4,9.1-11.1c0.1-1.2,0.1-2.5-0.4-3.7s-1.5-2.1-2.7-2.3
	c-1.3-0.2-2.5,0.5-3.4,1.5c-0.8,1-1.3,2.2-1.8,3.3c-0.5-1.6-1.2-3.4-2.9-3.9c-2.1-0.6-3.9,1.7-4.2,3.9c-0.3,2.8,1.2,5.8,3.6,7.2
	c1.5,0.9,3.3,0.9,3.7,2.8C202.5,37.1,201.2,38.1,201.2,38.1z"/>
</svg>
